<?xml version="1.0" standalone="no"?>
<!DOCTYPE svg PUBLIC "-//W3C//DTD SVG 1.1//EN" "http://www.w3.org/Graphics/SVG/1.1/DTD/svg11.dtd">
<svg width="100%" height="100%" viewBox="0 0 189 189" version="1.1" xmlns="http://www.w3.org/2000/svg" xmlns:xlink="http://www.w3.org/1999/xlink" xml:space="preserve" style="fill-rule:evenodd;clip-rule:evenodd;stroke-linejoin:round;stroke-miterlimit:1.41421;">
    <path d="M91.533,174.779C47.474,172.876 13.262,135.582 15.161,91.53C17.064,47.472 54.358,13.259 98.41,15.16C142.468,17.058 176.681,54.357 174.78,98.407C172.882,142.466 135.583,176.678 91.533,174.779ZM171.373,98.262C173.191,56.092 140.437,20.388 98.265,18.57C56.093,16.749 20.39,49.505 18.569,91.678C16.75,133.848 49.504,169.552 91.68,171.371C133.848,173.191 169.554,140.435 171.373,98.262Z" style="fill:rgb(178,178,178);"/>
    <path d="M28.122,70.563L0.343,42.785C-0.112,42.328 -0.112,41.582 0.343,41.126L41.129,0.342C41.584,-0.114 42.331,-0.114 42.787,0.342L70.562,28.122C71.023,28.579 71.023,29.325 70.562,29.781L60.537,39.809C59.11,40.742 57.721,41.718 56.377,42.735C56.367,42.677 56.356,42.621 56.346,42.56C55.931,40.378 55.037,38.32 53.783,36.492L64.145,26.13L42.455,4.438L4.439,42.453L26.132,64.144L36.486,53.786C38.381,55.085 40.51,55.999 42.729,56.383C41.712,57.727 40.737,59.115 39.803,60.545L29.784,70.563C29.325,71.021 28.58,71.021 28.122,70.563Z" style="fill:rgb(127,127,127);"/>
    <path d="M10.556,42.925L12.071,44.44L17.2,39.311L15.685,37.796L10.556,42.925Z" style="fill:rgb(127,127,127);"/>
    <path d="M54.76,42.861C56.027,49.545 51.716,54.977 45.15,54.977C38.581,54.977 32.222,49.545 30.958,42.861C29.692,36.173 34.002,30.74 40.568,30.74C47.135,30.74 53.495,36.173 54.76,42.861Z" style="fill:rgb(255,127,0);"/>
    <path d="M70.562,161.818L42.785,189.595C42.328,190.052 41.582,190.052 41.126,189.595L0.342,148.811C-0.114,148.356 -0.114,147.609 0.342,147.153L28.122,119.378C28.579,118.917 29.325,118.917 29.781,119.378L39.809,129.403C40.742,130.83 41.718,132.219 42.734,133.563C42.677,133.571 42.619,133.584 42.56,133.594C40.378,134.009 38.32,134.903 36.492,136.157L26.129,125.795L4.436,147.485L42.453,185.501L64.144,163.808L53.786,153.454C55.085,151.558 55.999,149.43 56.383,147.211C57.727,148.226 59.115,149.203 60.544,150.137L70.562,160.156C71.021,160.615 71.021,161.36 70.562,161.818Z" style="fill:rgb(127,127,127);"/>
    <path d="M42.924,179.384L44.439,177.869L39.31,172.74L37.795,174.255L42.924,179.384Z" style="fill:rgb(127,127,127);"/>
    <path d="M42.861,135.18C49.545,133.913 54.977,138.224 54.977,144.79C54.977,151.359 49.545,157.718 42.861,158.982C36.171,160.248 30.74,155.938 30.74,149.372C30.74,142.805 36.171,136.445 42.861,135.18Z" style="fill:rgb(255,127,0);"/>
    <path d="M161.818,119.378L189.595,147.155C190.052,147.612 190.052,148.358 189.595,148.814L148.811,189.598C148.355,190.054 147.609,190.054 147.153,189.598L119.377,161.818C118.916,161.361 118.916,160.615 119.377,160.159L129.402,150.131C130.829,149.198 132.219,148.222 133.563,147.205C133.571,147.263 133.584,147.321 133.592,147.38C134.008,149.562 134.903,151.62 136.157,153.448L125.794,163.81L147.485,185.504L185.501,147.487L163.808,125.796L153.452,136.154C151.558,134.855 149.43,133.941 147.211,133.557C148.226,132.213 149.203,130.825 150.137,129.396L160.156,119.378C160.614,118.919 161.359,118.919 161.818,119.378Z" style="fill:rgb(127,127,127);"/>
    <path d="M179.383,147.016L177.868,145.501L172.739,150.63L174.254,152.145L179.383,147.016Z" style="fill:rgb(127,127,127);"/>
    <path d="M135.18,147.079C133.913,140.395 138.222,134.963 144.79,134.963C151.357,134.963 157.718,140.395 158.982,147.079C160.247,153.769 155.938,159.2 149.372,159.2C142.805,159.2 136.445,153.769 135.18,147.079Z" style="fill:rgb(255,127,0);"/>
    <path d="M119.377,28.122L147.155,0.345C147.61,-0.112 148.358,-0.112 148.814,0.345L189.598,41.129C190.054,41.584 190.054,42.331 189.598,42.787L161.818,70.563C161.361,71.024 160.614,71.024 160.159,70.563L150.131,60.538C149.198,59.11 148.222,57.721 147.205,56.377C147.263,56.369 147.319,56.356 147.38,56.346C149.56,55.931 151.62,55.037 153.448,53.783L163.81,64.145L185.502,42.455L147.487,4.439L125.796,26.132L136.154,36.486C134.855,38.382 133.941,40.51 133.557,42.729C132.213,41.714 130.825,40.737 129.395,39.803L119.377,29.784C118.919,29.325 118.919,28.58 119.377,28.122Z" style="fill:rgb(127,127,127);"/>
    <path d="M147.014,10.557L145.499,12.072L150.628,17.201L152.143,15.686L147.014,10.557Z" style="fill:rgb(127,127,127);"/>
    <path d="M147.079,54.76C140.394,56.027 134.963,51.716 134.963,45.15C134.963,38.583 140.394,32.222 147.079,30.958C153.767,29.693 159.2,34.002 159.2,40.568C159.2,47.135 153.767,53.495 147.079,54.76Z" style="fill:rgb(255,127,0);"/>
    <path d="M117.842,154.59L109.507,146.255L109.495,146.265C103.837,140.618 95.131,138.56 87.257,141.746C84.625,142.817 82.335,144.371 80.438,146.263L80.442,146.263L80.441,146.265L80.438,146.263L72.102,154.597C66.4,152.038 61.226,148.95 56.588,145.337C56.592,145.156 56.595,144.971 56.595,144.79C56.595,137.834 51.293,133.082 44.606,133.356C40.99,128.715 37.905,123.544 35.35,117.842L43.685,109.507L43.677,109.498C49.323,103.84 51.383,95.131 48.194,87.259C47.125,84.621 45.566,82.321 43.665,80.426L43.665,80.424L35.343,72.102C37.902,66.401 40.99,61.228 44.603,56.588C44.784,56.592 44.967,56.595 45.15,56.595C52.106,56.595 56.858,51.293 56.582,44.606C61.225,40.99 66.396,37.905 72.096,35.35L80.418,43.672L80.421,43.672C86.082,49.326 94.795,51.393 102.667,48.2C105.306,47.133 107.601,45.576 109.495,43.68L109.497,43.685L117.838,35.343C123.539,37.902 128.712,40.99 133.352,44.603C133.348,44.785 133.345,44.969 133.345,45.15C133.345,52.106 138.647,56.858 145.334,56.584C148.95,61.225 152.035,66.396 154.588,72.098L146.251,80.438L146.263,80.45L146.26,80.45C140.614,86.11 138.557,94.812 141.746,102.681C142.812,105.316 144.365,107.612 146.26,109.502L154.595,117.838C152.038,123.539 148.95,128.712 145.337,133.352C145.155,133.348 144.971,133.345 144.79,133.345C137.834,133.345 133.082,138.647 133.356,145.334C128.715,148.95 123.544,152.035 117.842,154.59Z" style="fill:rgb(127,127,127);"/>
    <g id="Group_2">
        <path d="M73.925,114.358C63.383,114.358 58.113,108.573 58.113,97.002C58.113,91.246 59.547,86.848 62.415,83.809C65.282,80.771 69.392,79.25 74.743,79.25C78.661,79.25 82.174,80.018 85.284,81.553L82.558,88.702C81.104,88.116 79.751,87.636 78.499,87.263C77.248,86.889 75.996,86.702 74.743,86.702C69.938,86.702 67.534,90.114 67.534,96.94C67.534,103.564 69.938,106.877 74.743,106.877C76.52,106.877 78.166,106.639 79.68,106.164C81.196,105.689 82.71,104.948 84.224,103.938L84.224,111.844C82.73,112.794 81.22,113.449 79.695,113.813C78.171,114.176 76.246,114.358 73.925,114.358Z" style="fill:white;fill-rule:nonzero;"/>
        <path d="M87.843,109.421C87.843,107.724 88.297,106.442 89.207,105.574C90.115,104.706 91.439,104.272 93.175,104.272C94.852,104.272 96.149,104.716 97.067,105.604C97.984,106.493 98.445,107.766 98.445,109.421C98.445,111.016 97.981,112.273 97.052,113.193C96.123,114.111 94.831,114.57 93.175,114.57C91.478,114.57 90.165,114.122 89.237,113.223C88.308,112.324 87.843,111.057 87.843,109.421Z" style="fill:rgb(255,127,0);fill-rule:nonzero;"/>
        <path d="M126.613,109.421C126.613,107.724 127.067,106.442 127.977,105.574C128.886,104.706 130.208,104.272 131.945,104.272C133.622,104.272 134.919,104.716 135.837,105.604C136.756,106.493 137.215,107.766 137.215,109.421C137.215,111.016 136.75,112.273 135.822,113.193C134.893,114.111 133.6,114.57 131.945,114.57C130.248,114.57 128.935,114.122 128.006,113.223C127.078,112.324 126.613,111.057 126.613,109.421Z" style="fill:rgb(255,127,0);fill-rule:nonzero;"/>
        <path d="M107.44,111.557C105.754,109.688 104.91,106.886 104.91,103.15L104.91,86.824L100.488,86.824L100.488,82.915L100.489,82.915L100.489,79.886L104.91,79.886L104.91,72.677L114.15,72.677L114.15,79.886L123.632,79.886L123.632,86.824L114.15,86.824L114.15,103.15C114.15,104.462 114.519,105.432 115.255,106.058C115.993,106.683 116.966,106.997 118.178,106.997C119.795,106.997 121.733,106.644 123.994,105.938L123.994,112.813C121.692,113.844 118.864,114.358 115.512,114.358C111.818,114.358 109.127,113.424 107.44,111.557Z" style="fill:white;"/>
    </g>
</svg>
